<svg version="1.0" xmlns="http://www.w3.org/2000/svg" width="2710.000000pt" height="630.000000pt" viewBox="0 0 2710.000000 630.000000" preserveAspectRatio="xMidYMid meet">

<g transform="translate(0.000000,630.000000) scale(0.100000,-0.100000)" fill="#ffffff" stroke="none">
<path d="M4445 6151 c-55 -11 -141 -47 -500 -211 -532 -244 -677 -311 -1140 -527 -88 -42 -218 -102 -289 -134 -286 -132 -452 -218 -489 -254 -75 -73 -100 -161 -112 -397 -4 -87 -11 -141 -19 -147 -16 -13 -303 0 -841 39 -226 17 -468 30 -540 30 -115 0 -136 -3 -180 -24 -65 -30 -107 -72 -142 -144 -25 -50 -28 -67 -26 -142 2 -101 12 -133 143 -445 51 -121 126 -301 167 -400 41 -99 104 -250 140 -335 105 -253 168 -404 248 -598 114 -278 203 -466 242 -512 74 -86 129 -99 568 -130 170 -12 220 -23 230 -48 3 -9 10 -134 15 -277 13 -352 19 -369 158 -439 113 -56 169 -81 652 -286 223 -95 466 -198 540 -230 177 -76 301 -128 490 -207 85 -36 225 -94 310 -130 249 -104 305 -123 369 -123 109 0 236 88 261 180 7 26 13 271 18 693 l7 652 70 -1 c39 0 162 -4 275 -9 282 -11 297 -5 403 148 35 51 106 162 157 247 52 85 258 427 458 760 201 333 397 659 437 726 118 196 137 239 143 320 4 61 1 80 -20 125 -46 100 -113 156 -220 185 -126 34 -527 75 -1188 124 -477 35 -486 36 -495 58 -3 9 -9 341 -11 737 -3 396 -9 772 -13 836 -8 105 -12 123 -42 179 -18 34 -47 72 -63 85 -35 26 -109 37 -171 26z m-185 -1171 l0 -670 -66 0 c-80 0 -1548 98 -1749 117 l-65 6 2 171 3 171 125 62 c113 56 243 118 795 376 94 43 271 127 395 184 371 174 537 249 558 253 1 0 2 -301 2 -670z m-3150 -870 c473 -35 748 -58 772 -66 13 -4 17 -25 22 -127 9 -192 14 -1186 7 -1457 l-6 -245 -85 -3 c-111 -5 -388 16 -420 31 -17 8 -33 34 -53 82 -15 39 -48 117 -72 175 -184 440 -645 1597 -645 1621 0 25 -19 25 480 -11z m1535 -115 c99 -8 432 -33 740 -55 552 -39 749 -55 833 -66 l42 -5 0 -906 0 -905 -127 6 c-350 18 -542 30 -1043 62 -300 19 -581 38 -625 42 l-80 7 -3 923 -2 923 42 -5 c24 -3 124 -13 223 -21z m2460 -185 c291 -24 878 -77 948 -86 29 -4 51 -13 54 -21 7 -18 -34 -98 -162 -318 -174 -299 -752 -1289 -775 -1328 l-22 -38 -167 6 c-91 3 -185 8 -208 11 l-43 5 0 668 c0 367 3 770 7 894 l6 227 57 0 c31 0 168 -9 305 -20z m-2496 -2055 c108 -8 459 -33 781 -55 322 -22 643 -45 714 -50 72 -6 140 -10 153 -10 l23 0 0 -530 c0 -430 -3 -532 -13 -536 -7 -2 -60 15 -118 39 -57 25 -187 80 -289 122 -178 75 -1200 512 -1385 593 l-90 39 -3 189 c-1 104 0 194 2 201 6 16 -11 16 225 -2z" fill="#ffffff"/>
<path d="M11738 5050 c-117 -21 -244 -114 -293 -214 -75 -155 -48 -362 64 -488 122 -137 386 -174 571 -81 140 71 212 198 211 373 0 192 -89 327 -259 390 -63 24 -218 34 -294 20z" fill="#ffffff"/>
<path d="M7644 5023 c12 -43 1228 -4041 1237 -4070 l11 -33 433 0 434 0 41 128 c22 70 314 995 649 2057 l609 1930 -371 3 c-203 1 -372 1 -374 -2 -4 -4 -128 -432 -458 -1581 -169 -590 -260 -920 -489 -1774 -15 -55 -31 -62 -45 -19 -33 105 -223 814 -805 2993 l-101 380 -388 3 c-367 2 -388 1 -383 -15z" fill="#ffffff"/>
<path d="M25500 4983 c1 -5 -18 -223 -42 -485 l-43 -477 -25 -5 c-14 -3 -121 -10 -237 -17 l-213 -12 0 -274 0 -273 220 0 220 0 0 -802 c0 -522 4 -835 11 -893 33 -270 138 -514 283 -657 76 -75 147 -119 250 -158 139 -52 231 -65 441 -64 214 0 300 13 480 69 173 55 163 18 87 310 -35 138 -66 252 -68 253 -1 2 -27 -5 -56 -16 -64 -24 -175 -42 -256 -42 -221 0 -355 99 -420 311 -14 48 -16 147 -19 872 l-4 817 396 0 395 0 -2 288 -3 287 -392 3 -393 2 0 485 0 485 -305 0 c-168 0 -305 -3 -305 -7z" fill="#ffffff"/>
<path d="M14180 4084 c-14 -2 -65 -9 -115 -15 -108 -13 -318 -66 -435 -109 -170 -62 -530 -245 -530 -269 0 -7 71 -141 216 -408 l45 -82 61 36 c106 62 301 151 409 187 251 83 519 88 682 13 29 -13 78 -47 110 -76 92 -85 158 -241 169 -401 2 -41 1 -45 -22 -48 -728 -83 -1216 -233 -1489 -456 -215 -176 -324 -443 -308 -755 13 -257 100 -457 265 -613 168 -158 386 -238 652 -238 296 0 538 95 867 341 50 38 96 69 102 69 6 0 13 -10 16 -22 6 -29 45 -293 45 -307 0 -8 92 -11 300 -11 l300 0 0 990 c0 614 -4 1028 -10 1088 -29 270 -96 480 -206 650 -147 225 -347 357 -639 418 -67 14 -429 28 -485 18z m618 -2001 l2 -321 -52 -47 c-125 -113 -288 -208 -420 -245 -105 -30 -246 -37 -339 -16 -158 35 -247 101 -290 215 -30 81 -24 222 14 304 78 170 312 297 681 372 141 29 363 64 386 61 13 -1 15 -46 18 -323z" fill="#ffffff"/>
<path d="M17560 4083 c-402 -43 -785 -247 -1025 -546 -165 -205 -267 -432 -317 -706 -18 -98 -22 -154 -22 -366 0 -217 3 -266 22 -374 74 -406 268 -736 561 -957 97 -73 287 -171 405 -209 175 -56 265 -69 491 -69 229 -1 293 8 471 65 163 52 369 168 517 292 l28 24 -146 221 c-80 122 -149 222 -153 222 -4 0 -34 -20 -67 -45 -82 -62 -244 -141 -340 -166 -166 -43 -361 -34 -503 24 -197 79 -357 244 -453 466 -129 303 -125 748 10 1037 117 248 296 410 528 476 94 27 294 32 383 9 103 -26 250 -103 321 -168 l27 -25 133 174 c73 95 152 198 175 229 l43 56 -42 35 c-127 106 -335 218 -477 258 -122 34 -255 50 -400 48 -74 -1 -151 -3 -170 -5z" fill="#ffffff"/>
<path d="M20340 4084 c-14 -2 -65 -9 -115 -15 -108 -13 -318 -66 -435 -109 -170 -62 -530 -245 -530 -269 0 -7 71 -141 216 -408 l45 -82 61 36 c106 62 301 151 409 187 251 83 519 88 682 13 29 -13 78 -47 110 -76 92 -85 158 -241 169 -401 2 -41 1 -45 -22 -48 -728 -83 -1216 -233 -1489 -456 -215 -176 -324 -443 -308 -755 13 -257 100 -457 265 -613 168 -158 386 -238 652 -238 296 0 538 95 867 341 50 38 96 69 102 69 6 0 13 -10 16 -22 6 -29 45 -293 45 -307 0 -8 92 -11 300 -11 l300 0 0 990 c0 614 -4 1028 -10 1088 -29 270 -96 480 -206 650 -147 225 -347 357 -639 418 -67 14 -429 28 -485 18z m618 -2001 l2 -321 -52 -47 c-125 -113 -288 -208 -420 -245 -105 -30 -246 -37 -339 -16 -158 35 -247 101 -290 215 -30 81 -24 222 14 304 78 170 312 297 681 372 141 29 363 64 386 61 13 -1 15 -46 18 -323z" fill="#ffffff"/>
<path d="M23350 4084 c-319 -46 -514 -132 -683 -300 -171 -171 -248 -361 -248 -614 0 -140 18 -226 71 -335 107 -222 349 -405 735 -555 446 -174 512 -206 606 -299 82 -82 104 -138 97 -242 -7 -87 -44 -163 -110 -225 -88 -83 -194 -115 -378 -115 -138 0 -226 10 -342 40 -154 40 -330 125 -468 227 -34 25 -65 44 -70 42 -5 -2 -78 -94 -164 -205 l-154 -202 61 -54 c234 -204 566 -345 913 -387 138 -17 427 -7 554 19 565 115 894 518 841 1030 -21 200 -91 342 -241 484 -151 145 -341 246 -713 379 -387 138 -502 214 -544 357 -30 104 5 218 93 301 88 84 185 113 369 112 216 -2 418 -65 614 -192 35 -23 67 -38 71 -33 4 4 76 97 160 207 l152 198 -28 24 c-100 83 -287 190 -436 248 -166 65 -357 96 -578 94 -85 0 -166 -2 -180 -4z" fill="#ffffff"/>
<path d="M11490 2290 l0 -1370 360 0 360 0 0 1370 0 1370 -360 0 -360 0 0 -1370z" fill="#ffffff"/>
</g>
</svg>